<svg xmlns="http://www.w3.org/2000/svg" version="1.1" xmlns:xlink="http://www.w3.org/1999/xlink" xmlns:svgjs="http://svgjs.dev/svgjs" viewBox="0 0 13.124089028480777 3.0551241847307775"><g transform="matrix(1,0,0,1,0.4993492279511784,0.5471995923653888)"><g><path d=" M 1.5735000000000001 0.016499999999999737 L 1.314 1.0739999999999998 L 0.9525 1.0739999999999998 L 0.807 0.4259999999999998 L 0.6585 1.0739999999999998 L 0.297 1.0739999999999998 L 0.0405 0.016499999999999737 L 0.3585 0.016499999999999737 L 0.4815 0.7394999999999998 L 0.648 0.016499999999999737 L 0.9705 0.016499999999999737 L 1.1325 0.7334999999999998 L 1.2555 0.016499999999999737 L 1.5735000000000001 0.016499999999999737 M 1.9469831542968752 1.0147499999999998 Q 1.8224831542968751 0.9449999999999998 1.749733154296875 0.8212499999999998 Q 1.6769831542968752 0.6974999999999998 1.6769831542968752 0.5414999999999999 Q 1.6769831542968752 0.38549999999999984 1.749733154296875 0.2617499999999998 Q 1.8224831542968751 0.1379999999999998 1.9469831542968752 0.06899999999999973 Q 2.071483154296875 -2.220446049250313e-16 2.219983154296875 -2.220446049250313e-16 Q 2.3699831542968752 -2.220446049250313e-16 2.493733154296875 0.06899999999999973 Q 2.6174831542968753 0.1379999999999998 2.689483154296875 0.2617499999999998 Q 2.761483154296875 0.38549999999999984 2.761483154296875 0.5414999999999999 Q 2.761483154296875 0.6974999999999998 2.689483154296875 0.8212499999999998 Q 2.6174831542968753 0.9449999999999998 2.492983154296875 1.0147499999999998 Q 2.368483154296875 1.0844999999999998 2.219983154296875 1.0844999999999998 Q 2.071483154296875 1.0844999999999998 1.9469831542968752 1.0147499999999998 M 2.3977331542968754 0.7379999999999998 Q 2.462983154296875 0.6644999999999999 2.462983154296875 0.5414999999999999 Q 2.462983154296875 0.41549999999999987 2.3977331542968754 0.3427499999999998 Q 2.332483154296875 0.2699999999999998 2.219983154296875 0.2699999999999998 Q 2.105983154296875 0.2699999999999998 2.041483154296875 0.3427499999999998 Q 1.9769831542968752 0.41549999999999987 1.9769831542968752 0.5414999999999999 Q 1.9769831542968752 0.6659999999999998 2.041483154296875 0.7387499999999998 Q 2.105983154296875 0.8114999999999999 2.219983154296875 0.8114999999999999 Q 2.332483154296875 0.8114999999999999 2.3977331542968754 0.7379999999999998 M 3.443964111328125 1.0739999999999998 L 3.2339641113281252 0.6839999999999998 L 3.2024641113281254 0.6839999999999998 L 3.2024641113281254 1.0739999999999998 L 2.9084641113281253 1.0739999999999998 L 2.9084641113281253 0.016499999999999737 L 3.371964111328125 0.016499999999999737 Q 3.499464111328125 0.016499999999999737 3.5879641113281253 0.06074999999999986 Q 3.676464111328125 0.10499999999999987 3.7214641113281255 0.1822499999999998 Q 3.7664641113281254 0.25949999999999984 3.7664641113281254 0.3554999999999998 Q 3.7664641113281254 0.4634999999999998 3.7072141113281254 0.5452499999999998 Q 3.6479641113281254 0.6269999999999998 3.5339641113281255 0.6614999999999998 L 3.772464111328125 1.0739999999999998 L 3.443964111328125 1.0739999999999998 M 3.2024641113281254 0.4829999999999999 L 3.347964111328125 0.4829999999999999 Q 3.407964111328125 0.4829999999999999 3.4379641113281254 0.4544999999999998 Q 3.467964111328125 0.4259999999999998 3.467964111328125 0.3719999999999998 Q 3.467964111328125 0.32099999999999984 3.4372141113281254 0.29174999999999984 Q 3.406464111328125 0.26249999999999984 3.347964111328125 0.26249999999999984 L 3.2024641113281254 0.26249999999999984 L 3.2024641113281254 0.4829999999999999 M 4.540480224609375 1.0739999999999998 L 4.208980224609375 0.6104999999999998 L 4.208980224609375 1.0739999999999998 L 3.9149802246093754 1.0739999999999998 L 3.9149802246093754 0.016499999999999737 L 4.208980224609375 0.016499999999999737 L 4.208980224609375 0.4724999999999998 L 4.537480224609375 0.016499999999999737 L 4.8764802246093755 0.016499999999999737 L 4.487980224609375 0.5294999999999999 L 4.895980224609375 1.0739999999999998 L 4.540480224609375 1.0739999999999998 M 6.508500000000001 0.016499999999999737 L 6.2490000000000006 1.0739999999999998 L 5.8875 1.0739999999999998 L 5.742000000000001 0.4259999999999998 L 5.593500000000001 1.0739999999999998 L 5.232 1.0739999999999998 L 4.9755 0.016499999999999737 L 5.293500000000001 0.016499999999999737 L 5.4165 0.7394999999999998 L 5.583 0.016499999999999737 L 5.905500000000001 0.016499999999999737 L 6.067500000000001 0.7334999999999998 L 6.1905 0.016499999999999737 L 6.508500000000001 0.016499999999999737 M 7.316983154296876 0.9014999999999999 L 6.941983154296876 0.9014999999999999 L 6.884983154296876 1.0739999999999998 L 6.575983154296876 1.0739999999999998 L 6.961483154296876 0.016499999999999737 L 7.300483154296876 0.016499999999999737 L 7.684483154296876 1.0739999999999998 L 7.373983154296877 1.0739999999999998 L 7.316983154296876 0.9014999999999999 M 7.243483154296876 0.6764999999999999 L 7.129483154296876 0.3344999999999998 L 7.016983154296876 0.6764999999999999 L 7.243483154296876 0.6764999999999999 M 8.824490478515626 0.016499999999999737 L 8.459990478515627 1.0739999999999998 L 8.083490478515627 1.0739999999999998 L 7.717490478515627 0.016499999999999737 L 8.032490478515626 0.016499999999999737 L 8.272490478515627 0.7799999999999998 L 8.510990478515627 0.016499999999999737 L 8.824490478515626 0.016499999999999737 M 9.225004394531252 0.2519999999999998 L 9.225004394531252 0.4244999999999999 L 9.562504394531253 0.4244999999999999 L 9.562504394531253 0.6479999999999999 L 9.225004394531252 0.6479999999999999 L 9.225004394531252 0.8384999999999998 L 9.607504394531253 0.8384999999999998 L 9.607504394531253 1.0739999999999998 L 8.931004394531252 1.0739999999999998 L 8.931004394531252 0.016499999999999737 L 9.607504394531253 0.016499999999999737 L 9.607504394531253 0.2519999999999998 L 9.225004394531252 0.2519999999999998" fill="#1c3423" fill-rule="nonzero"></path></g><g><path d=" M 1.7376917724609384 1.4342249999999999 L 1.5554417724609384 1.786725 L 1.5554417724609384 1.9607249999999998 L 1.4271917724609384 1.9607249999999998 L 1.4271917724609384 1.786725 L 1.2449417724609384 1.4342249999999999 L 1.3904417724609384 1.4342249999999999 L 1.4924417724609385 1.6547249999999998 L 1.5936917724609385 1.4342249999999999 L 1.7376917724609384 1.4342249999999999 M 1.9098321533203135 1.9314749999999998 Q 1.8479571533203134 1.8969749999999999 1.8115821533203136 1.8350999999999997 Q 1.7752071533203135 1.7732249999999998 1.7752071533203135 1.6959749999999998 Q 1.7752071533203135 1.6187249999999997 1.8115821533203136 1.5572249999999999 Q 1.8479571533203134 1.4957249999999997 1.9098321533203135 1.4612249999999998 Q 1.9717071533203134 1.4267249999999998 2.0459571533203134 1.4267249999999998 Q 2.1202071533203135 1.4267249999999998 2.1820821533203136 1.4612249999999998 Q 2.2439571533203133 1.4957249999999997 2.2795821533203133 1.5572249999999999 Q 2.3152071533203133 1.6187249999999997 2.3152071533203133 1.6959749999999998 Q 2.3152071533203133 1.7732249999999998 2.2792071533203133 1.8350999999999997 Q 2.2432071533203137 1.8969749999999999 2.1817071533203136 1.9314749999999998 Q 2.1202071533203135 1.9659749999999998 2.0459571533203134 1.9659749999999998 Q 1.9717071533203134 1.9659749999999998 1.9098321533203135 1.9314749999999998 M 2.1468321533203136 1.8069749999999998 Q 2.1847071533203133 1.7649749999999997 2.1847071533203133 1.6959749999999998 Q 2.1847071533203133 1.6262249999999998 2.1468321533203136 1.5845999999999998 Q 2.1089571533203135 1.5429749999999998 2.0459571533203134 1.5429749999999998 Q 1.9822071533203136 1.5429749999999998 1.9443321533203135 1.5842249999999998 Q 1.9064571533203134 1.6254749999999998 1.9064571533203134 1.6959749999999998 Q 1.9064571533203134 1.7657249999999998 1.9443321533203135 1.8073499999999998 Q 1.9822071533203136 1.8489749999999998 2.0459571533203134 1.8489749999999998 Q 2.1089571533203135 1.8489749999999998 2.1468321533203136 1.8069749999999998 M 2.5199652099609384 1.4342249999999999 L 2.5199652099609384 1.7492249999999998 Q 2.5199652099609384 1.7964749999999998 2.5432152099609384 1.821975 Q 2.5664652099609384 1.8474749999999998 2.6114652099609383 1.8474749999999998 Q 2.6564652099609387 1.8474749999999998 2.6804652099609387 1.821975 Q 2.7044652099609383 1.7964749999999998 2.7044652099609383 1.7492249999999998 L 2.7044652099609383 1.4342249999999999 L 2.8327152099609387 1.4342249999999999 L 2.8327152099609387 1.7484749999999998 Q 2.8327152099609387 1.8189749999999998 2.8027152099609385 1.8677249999999999 Q 2.7727152099609387 1.916475 2.7220902099609385 1.9412249999999998 Q 2.6714652099609384 1.9659749999999998 2.6092152099609387 1.9659749999999998 Q 2.5469652099609386 1.9659749999999998 2.4978402099609385 1.9415999999999998 Q 2.4487152099609384 1.9172249999999997 2.4202152099609386 1.8680999999999999 Q 2.3917152099609384 1.8189749999999998 2.3917152099609384 1.7484749999999998 L 2.3917152099609384 1.4342249999999999 L 2.5199652099609384 1.4342249999999999 M 3.198728027343751 1.9607249999999998 L 3.0892280273437507 1.7619749999999998 L 3.058478027343751 1.7619749999999998 L 3.058478027343751 1.9607249999999998 L 2.930228027343751 1.9607249999999998 L 2.930228027343751 1.4342249999999999 L 3.145478027343751 1.4342249999999999 Q 3.2077280273437507 1.4342249999999999 3.251603027343751 1.4559749999999998 Q 3.295478027343751 1.477725 3.317228027343751 1.5155999999999998 Q 3.338978027343751 1.5534749999999997 3.338978027343751 1.5999749999999997 Q 3.338978027343751 1.652475 3.309353027343751 1.6937249999999997 Q 3.279728027343751 1.734975 3.221978027343751 1.752225 L 3.343478027343751 1.9607249999999998 L 3.198728027343751 1.9607249999999998 M 3.058478027343751 1.6712249999999997 L 3.1379780273437508 1.6712249999999997 Q 3.1732280273437508 1.6712249999999997 3.190853027343751 1.6539749999999998 Q 3.2084780273437508 1.6367249999999998 3.2084780273437508 1.605225 Q 3.2084780273437508 1.5752249999999999 3.190853027343751 1.5579749999999999 Q 3.1732280273437508 1.540725 3.1379780273437508 1.540725 L 3.058478027343751 1.540725 L 3.058478027343751 1.6712249999999997 M 3.971942504882813 1.4342249999999999 L 3.971942504882813 1.5369749999999998 L 3.8324425048828132 1.5369749999999998 L 3.8324425048828132 1.9607249999999998 L 3.7041925048828133 1.9607249999999998 L 3.7041925048828133 1.5369749999999998 L 3.564692504882813 1.5369749999999998 L 3.564692504882813 1.4342249999999999 L 3.971942504882813 1.4342249999999999 M 4.172195068359375 1.4342249999999999 L 4.172195068359375 1.9607249999999998 L 4.043945068359376 1.9607249999999998 L 4.043945068359376 1.4342249999999999 L 4.172195068359375 1.4342249999999999 M 4.868932250976563 1.4342249999999999 L 4.868932250976563 1.9607249999999998 L 4.740682250976563 1.9607249999999998 L 4.740682250976563 1.6449749999999999 L 4.622932250976563 1.9607249999999998 L 4.519432250976562 1.9607249999999998 L 4.400932250976563 1.6442249999999998 L 4.400932250976563 1.9607249999999998 L 4.272682250976563 1.9607249999999998 L 4.272682250976563 1.4342249999999999 L 4.424182250976563 1.4342249999999999 L 4.5719322509765625 1.798725 L 4.718182250976563 1.4342249999999999 L 4.868932250976563 1.4342249999999999 M 5.096954589843751 1.5369749999999998 L 5.096954589843751 1.6434749999999998 L 5.26870458984375 1.6434749999999998 L 5.26870458984375 1.7424749999999998 L 5.096954589843751 1.7424749999999998 L 5.096954589843751 1.8579749999999997 L 5.29120458984375 1.8579749999999997 L 5.29120458984375 1.9607249999999998 L 4.9687045898437505 1.9607249999999998 L 4.9687045898437505 1.4342249999999999 L 5.29120458984375 1.4342249999999999 L 5.29120458984375 1.5369749999999998 L 5.096954589843751 1.5369749999999998 M 5.999947631835939 1.4342249999999999 L 5.817697631835939 1.786725 L 5.817697631835939 1.9607249999999998 L 5.689447631835939 1.9607249999999998 L 5.689447631835939 1.786725 L 5.507197631835939 1.4342249999999999 L 5.652697631835939 1.4342249999999999 L 5.754697631835938 1.6547249999999998 L 5.855947631835939 1.4342249999999999 L 5.999947631835939 1.4342249999999999 M 6.172088012695314 1.9314749999999998 Q 6.110213012695314 1.8969749999999999 6.0738380126953135 1.8350999999999997 Q 6.037463012695314 1.7732249999999998 6.037463012695314 1.6959749999999998 Q 6.037463012695314 1.6187249999999997 6.0738380126953135 1.5572249999999999 Q 6.110213012695314 1.4957249999999997 6.172088012695314 1.4612249999999998 Q 6.233963012695314 1.4267249999999998 6.3082130126953135 1.4267249999999998 Q 6.382463012695314 1.4267249999999998 6.444338012695314 1.4612249999999998 Q 6.506213012695314 1.4957249999999997 6.5418380126953135 1.5572249999999999 Q 6.577463012695314 1.6187249999999997 6.577463012695314 1.6959749999999998 Q 6.577463012695314 1.7732249999999998 6.5414630126953135 1.8350999999999997 Q 6.505463012695314 1.8969749999999999 6.443963012695314 1.9314749999999998 Q 6.382463012695314 1.9659749999999998 6.3082130126953135 1.9659749999999998 Q 6.233963012695314 1.9659749999999998 6.172088012695314 1.9314749999999998 M 6.409088012695314 1.8069749999999998 Q 6.4469630126953135 1.7649749999999997 6.4469630126953135 1.6959749999999998 Q 6.4469630126953135 1.6262249999999998 6.409088012695314 1.5845999999999998 Q 6.371213012695314 1.5429749999999998 6.3082130126953135 1.5429749999999998 Q 6.244463012695314 1.5429749999999998 6.206588012695314 1.5842249999999998 Q 6.168713012695314 1.6254749999999998 6.168713012695314 1.6959749999999998 Q 6.168713012695314 1.7657249999999998 6.206588012695314 1.8073499999999998 Q 6.244463012695314 1.8489749999999998 6.3082130126953135 1.8489749999999998 Q 6.371213012695314 1.8489749999999998 6.409088012695314 1.8069749999999998 M 6.7822210693359395 1.4342249999999999 L 6.7822210693359395 1.7492249999999998 Q 6.7822210693359395 1.7964749999999998 6.8054710693359395 1.821975 Q 6.8287210693359395 1.8474749999999998 6.873721069335939 1.8474749999999998 Q 6.918721069335939 1.8474749999999998 6.942721069335939 1.821975 Q 6.966721069335939 1.7964749999999998 6.966721069335939 1.7492249999999998 L 6.966721069335939 1.4342249999999999 L 7.094971069335939 1.4342249999999999 L 7.094971069335939 1.7484749999999998 Q 7.094971069335939 1.8189749999999998 7.0649710693359395 1.8677249999999999 Q 7.034971069335939 1.916475 6.984346069335939 1.9412249999999998 Q 6.933721069335939 1.9659749999999998 6.871471069335939 1.9659749999999998 Q 6.809221069335939 1.9659749999999998 6.7600960693359395 1.9415999999999998 Q 6.7109710693359395 1.9172249999999997 6.682471069335939 1.8680999999999999 Q 6.653971069335939 1.8189749999999998 6.653971069335939 1.7484749999999998 L 6.653971069335939 1.4342249999999999 L 6.7822210693359395 1.4342249999999999 M 7.460983886718752 1.9607249999999998 L 7.351483886718752 1.7619749999999998 L 7.320733886718752 1.7619749999999998 L 7.320733886718752 1.9607249999999998 L 7.192483886718752 1.9607249999999998 L 7.192483886718752 1.4342249999999999 L 7.407733886718752 1.4342249999999999 Q 7.469983886718752 1.4342249999999999 7.513858886718752 1.4559749999999998 Q 7.557733886718752 1.477725 7.5794838867187515 1.5155999999999998 Q 7.601233886718752 1.5534749999999997 7.601233886718752 1.5999749999999997 Q 7.601233886718752 1.652475 7.571608886718752 1.6937249999999997 Q 7.541983886718752 1.734975 7.484233886718752 1.752225 L 7.605733886718752 1.9607249999999998 L 7.460983886718752 1.9607249999999998 M 7.320733886718752 1.6712249999999997 L 7.400233886718752 1.6712249999999997 Q 7.435483886718752 1.6712249999999997 7.453108886718752 1.6539749999999998 Q 7.470733886718752 1.6367249999999998 7.470733886718752 1.605225 Q 7.470733886718752 1.5752249999999999 7.453108886718752 1.5579749999999999 Q 7.435483886718752 1.540725 7.400233886718752 1.540725 L 7.320733886718752 1.540725 L 7.320733886718752 1.6712249999999997 M 8.579948364257815 1.4342249999999999 L 8.442698364257815 1.9607249999999998 L 8.287448364257815 1.9607249999999998 L 8.203448364257815 1.6142249999999998 L 8.116448364257815 1.9607249999999998 L 7.961198364257815 1.9607249999999998 L 7.827698364257815 1.4342249999999999 L 7.964948364257815 1.4342249999999999 L 8.040698364257816 1.8174749999999997 L 8.134448364257816 1.4342249999999999 L 8.275448364257816 1.4342249999999999 L 8.365448364257816 1.8174749999999997 L 8.441948364257815 1.4342249999999999 L 8.579948364257815 1.4342249999999999 M 8.979699829101564 1.8677249999999999 L 8.783199829101564 1.8677249999999999 L 8.751699829101565 1.9607249999999998 L 8.617449829101565 1.9607249999999998 L 8.807949829101565 1.4342249999999999 L 8.956449829101565 1.4342249999999999 L 9.146949829101564 1.9607249999999998 L 9.011199829101564 1.9607249999999998 L 8.979699829101564 1.8677249999999999 M 8.946699829101565 1.7687249999999999 L 8.881449829101564 1.575975 L 8.816949829101564 1.7687249999999999 L 8.946699829101565 1.7687249999999999 M 9.663699462890627 1.4342249999999999 L 9.481449462890627 1.786725 L 9.481449462890627 1.9607249999999998 L 9.353199462890627 1.9607249999999998 L 9.353199462890627 1.786725 L 9.170949462890627 1.4342249999999999 L 9.316449462890628 1.4342249999999999 L 9.418449462890628 1.6547249999999998 L 9.519699462890626 1.4342249999999999 L 9.663699462890627 1.4342249999999999" fill="#67a97b" fill-rule="nonzero"></path></g><g clip-path="url(#SvgjsClipPath1001)"><g clip-path="url(#SvgjsClipPath10009f9265fc-7891-459f-b1ec-638e4b16a0c2)"><path d=" M 11.214687749811548 -0.003343436140280827 C 11.73163179870868 0.058825994428236064 12.11070301347176 0.5128859278065193 12.079562552586967 1.032622841526584 C 12.048422091702175 1.5523597552466488 11.617846689175538 1.957909051510951 11.097177708164208 1.957909051510951 C 10.57650872715288 1.957909051510951 10.145933324626244 1.5523597552466488 10.114792863741451 1.0326228415265843 C 10.083652402856659 0.5128859278065195 10.462723617619737 0.0588259944282362 10.979667666516871 -0.003343436140280827 L 10.979667666516871 -0.0478503644142102 C 10.438233789630424 0.014435897333612481 10.039456188301727 0.48836574024330026 10.070650457908012 1.0324770698317738 C 10.1018447275143 1.5765883994202468 10.55217291787076 2.001838434449223 11.097177708164208 2.001838434449224 C 11.642182498457657 2.001838434449225 12.09251068881412 1.576588399420249 12.123704958420404 1.0324770698317756 C 12.154899228026691 0.48836574024330204 11.756121626697995 0.014435897333613265 11.21468774981155 -0.0478503644142102 Z" fill="#11cc33" transform="matrix(1,0,0,1,0,0)" fill-rule="nonzero"></path></g><g clip-path="url(#SvgjsClipPath10009f9265fc-7891-459f-b1ec-638e4b16a0c2)"><path d=" M 11.214687749811548 0.17505149583558466 C 11.633509586643182 0.23662588333309742 11.933777790903411 0.6110561277217335 11.902908413298201 1.0332530222259262 C 11.872039035692989 1.4554499167301191 11.52050162220961 1.7822226960799497 11.09717770816421 1.78222269607995 C 10.67385379411881 1.78222269607995 10.32231638063543 1.4554499167301196 10.291447003030218 1.0332530222259266 C 10.260577625425006 0.611056127721734 10.560845829685237 0.23662588333309803 10.97966766651687 0.1750514958355848 L 10.97966766651687 0.2197603944935954 C 10.585430951808636 0.2811429677236091 10.304856128566856 0.6356155292154351 10.335639171397135 1.0334129799292238 C 10.366422214227414 1.4312104306430125 10.69819098216912 1.7382975728456374 11.097177708164208 1.7382975728456378 C 11.496164434159297 1.7382975728456378 11.827933202101002 1.431210430643013 11.858716244931282 1.0334129799292242 C 11.889499287761563 0.6356155292154352 11.608924464519783 0.28114296772360936 11.214687749811548 0.21976039449359558 Z" fill="#4caf7a" transform="matrix(1,0,0,1,0,0)" fill-rule="nonzero"></path></g><g clip-path="url(#SvgjsClipPath10009f9265fc-7891-459f-b1ec-638e4b16a0c2)"><path d=" M 10.979667666516871 0.4445717929201594 C 10.708944191922944 0.5045247552010247 10.526761945716714 0.7586676574921821 10.556917284596546 1.034305486752793 C 10.587072623476377 1.309943316013404 10.819895257615208 1.5186838407094414 11.097177708164208 1.5186838407094414 C 11.37446015871321 1.5186838407094414 11.60728279285204 1.3099433160134044 11.637438131731873 1.034305486752793 C 11.667593470611704 0.7586676574921825 11.485411224405475 0.5045247552010248 11.214687749811548 0.4445717929201596 L 11.214687749811548 0.39936714877394897 C 11.510221182498437 0.4596926581086189 11.712068923672899 0.7340003427805656 11.681752652044583 1.034100493708121 C 11.651436380416268 1.3342006446356773 11.398805254837558 1.5625966403889988 11.097177708164208 1.5625966403889988 C 10.79555016149086 1.5625966403889988 10.542919035912151 1.3342006446356773 10.512602764283836 1.034100493708121 C 10.48228649265552 0.7340003427805653 10.684134233829981 0.4596926581086188 10.979667666516871 0.3993671487739491 Z" fill="#11cc33" transform="matrix(1,0,0,1,0,0)" fill-rule="nonzero"></path></g><g clip-path="url(#SvgjsClipPath10009f9265fc-7891-459f-b1ec-638e4b16a0c2)"><path d=" M 10.979667666516871 0.627832375057985 C 10.809295294778492 0.6853773924401421 10.705659932515328 0.8578364652712194 10.73481829890698 1.035284947222019 C 10.76397666529863 1.2127334291728182 10.91734952884497 1.3429608642269129 11.097177708164208 1.3429608642269129 C 11.27700588748345 1.3429608642269129 11.430378751029787 1.2127334291728182 11.459537117421439 1.035284947222019 C 11.488695483813089 0.8578364652712196 11.385060121549927 0.6853773924401421 11.214687749811548 0.627832375057985 L 11.214687749811548 0.6748731136049351 C 11.359464372698625 0.7313881203396317 11.443505393182567 0.8829569923627358 11.41475148890234 1.0356901895055106 C 11.385997584622112 1.1884233866482847 11.252593976684626 1.2990556309516497 11.09717770816421 1.29905563095165 C 10.941761439643793 1.29905563095165 10.808357831706306 1.1884233866482852 10.779603927426079 1.0356901895055106 C 10.750850023145851 0.8829569923627361 10.834891043629792 0.7313881203396321 10.979667666516871 0.6748731136049353 Z" fill="#11cc33" transform="matrix(1,0,0,1,0,0)" fill-rule="nonzero"></path></g></g></g><defs><clipPath id="SvgjsClipPath1001"><path d=" M 10.068964843749999 -0.0478503644142102 h 2.0564257288284202 v 2.0564257288284202 h -2.0564257288284202 Z"></path></clipPath><clipPath id="SvgjsClipPath10009f9265fc-7891-459f-b1ec-638e4b16a0c2"><path d=" M 10.068964843749999 -0.0478503644142102 L 12.12539057257842 -0.0478503644142102 L 12.12539057257842 2.00857536441421 L 10.068964843749999 2.00857536441421 Z"></path></clipPath></defs></svg>